<svg width="2672" height="641" viewBox="0 0 2672 641" fill="none" xmlns="http://www.w3.org/2000/svg">
<path d="M1277.29 0H726.711C694.286 0 668 25.2233 668 56.3379V584.662C668 615.777 694.286 641 726.711 641H1277.29C1309.71 641 1336 615.777 1336 584.662V56.3379C1336 25.2233 1309.71 0 1277.29 0Z" fill="#595783"/>
<g filter="url(#filter0_d_0_1)">
<path fill-rule="evenodd" clip-rule="evenodd" d="M1022.29 363.751H815.035C809.055 363.751 804.208 357.608 804.208 350.03V145.67L1022.29 363.751ZM1034.92 121C1040.9 121 1045.75 127.143 1045.75 134.721L1045.75 338.486L828.265 121H1034.92Z" fill="white"/>
</g>
<g filter="url(#filter1_d_0_1)">
<path fill-rule="evenodd" clip-rule="evenodd" d="M1100.79 442.252H892.275C886.325 442.252 881.502 436.048 881.502 428.396V222.964L1100.79 442.252ZM1111.06 197.086C1117.01 197.086 1121.84 203.29 1121.84 210.943V414.572L904.351 197.086H1111.06Z" fill="white"/>
</g>
<g filter="url(#filter2_d_0_1)">
<path fill-rule="evenodd" clip-rule="evenodd" d="M1186.54 528H979.23C973.28 528 968.457 521.857 968.457 514.279V309.919L1186.54 528ZM1198.02 285.249C1203.97 285.249 1208.79 291.392 1208.79 298.97V501.528L992.513 285.249H1198.02Z" fill="white"/>
</g>
<g clip-path="url(#clip0_0_1)">
<g clip-path="url(#clip1_0_1)">
<path d="M2613.29 0H2062.71C2030.29 0 2004 25.2233 2004 56.3379V584.662C2004 615.777 2030.29 641 2062.71 641H2613.29C2645.71 641 2672 615.777 2672 584.662V56.3379C2672 25.2233 2645.71 0 2613.29 0Z" fill="#595783"/>
<path d="M2510.22 176.525H2165.78C2156.41 176.525 2148.82 183.812 2148.82 192.801V448.199C2148.82 457.188 2156.41 464.475 2165.78 464.475H2510.22C2519.59 464.475 2527.18 457.188 2527.18 448.199V192.801C2527.18 183.812 2519.59 176.525 2510.22 176.525Z" fill="white"/>
<path d="M2347.13 224.726C2347.13 219.54 2342.75 215.336 2337.35 215.336C2331.94 215.336 2327.56 219.54 2327.56 224.726V271.048C2327.56 276.234 2331.94 280.438 2337.35 280.438C2342.75 280.438 2347.13 276.234 2347.13 271.048V224.726Z" fill="#595783"/>
<path d="M2347.13 368.7C2347.13 363.514 2342.75 359.311 2337.35 359.311C2331.94 359.311 2327.56 363.514 2327.56 368.7V415.022C2327.56 420.208 2331.94 424.412 2337.35 424.412C2342.75 424.412 2347.13 420.208 2347.13 415.022V368.7Z" fill="#595783"/>
<path d="M2238.19 310.484C2232.79 310.484 2228.41 314.688 2228.41 319.874C2228.41 325.06 2232.79 329.264 2238.19 329.264H2286.46C2291.87 329.264 2296.25 325.06 2296.25 319.874C2296.25 314.688 2291.87 310.484 2286.46 310.484H2238.19Z" fill="#595783"/>
<path d="M2388.23 310.484C2382.83 310.484 2378.45 314.688 2378.45 319.874C2378.45 325.06 2382.83 329.264 2388.23 329.264H2436.5C2441.91 329.264 2446.29 325.06 2446.29 319.874C2446.29 314.688 2441.91 310.484 2436.5 310.484H2388.23Z" fill="#595783"/>
<path d="M2260.05 245.701L2260.05 245.701C2256.53 249.079 2256.53 254.557 2260.05 257.935L2295.47 291.92C2298.99 295.298 2304.7 295.298 2308.22 291.92L2308.22 291.919C2311.74 288.541 2311.74 283.064 2308.22 279.685L2272.8 245.701C2269.28 242.322 2263.57 242.322 2260.05 245.701Z" fill="#595783"/>
<path d="M2366.3 347.655L2366.3 347.655C2362.78 351.033 2362.78 356.511 2366.3 359.889L2401.71 393.874C2405.24 397.252 2410.94 397.252 2414.46 393.874L2414.46 393.873C2417.99 390.495 2417.99 385.017 2414.46 381.639L2379.05 347.655C2375.53 344.276 2369.82 344.276 2366.3 347.655Z" fill="#595783"/>
<path d="M2260.05 393.873L2260.05 393.873C2263.57 397.251 2269.28 397.251 2272.8 393.873L2308.22 359.889C2311.74 356.51 2311.74 351.033 2308.22 347.654C2304.69 344.276 2298.99 344.276 2295.47 347.654L2260.05 381.639C2256.53 385.017 2256.53 390.495 2260.05 393.873Z" fill="#595783"/>
<path d="M2366.3 291.92L2366.3 291.92C2369.82 295.299 2375.53 295.299 2379.05 291.92L2414.46 257.936C2417.98 254.557 2417.98 249.08 2414.46 245.701L2414.46 245.701C2410.94 242.323 2405.24 242.323 2401.71 245.701L2366.3 279.686C2362.78 283.064 2362.78 288.542 2366.3 291.92Z" fill="#595783"/>
</g>
</g>
<g clip-path="url(#clip2_0_1)">
<g clip-path="url(#clip3_0_1)">
<path d="M1945.29 0H1394.71C1362.29 0 1336 25.2233 1336 56.3379V584.662C1336 615.777 1362.29 641 1394.71 641H1945.29C1977.71 641 2004 615.777 2004 584.662V56.3379C2004 25.2233 1977.71 0 1945.29 0Z" fill="#595783"/>
<path d="M1842.4 177H1497.96C1488.59 177 1481 184.287 1481 193.275V448.674C1481 457.662 1488.59 464.949 1497.96 464.949H1842.4C1851.77 464.949 1859.36 457.662 1859.36 448.674V193.275C1859.36 184.287 1851.77 177 1842.4 177Z" fill="white"/>
<path d="M1608.01 339.008C1607.84 329.142 1609.43 321.208 1612.78 315.205C1616.14 309.203 1620.5 304.835 1625.86 302.101C1631.28 299.367 1636.99 298 1643 298C1649 298 1654.48 299.337 1659.43 302.012C1664.43 304.627 1670.15 308.757 1676.57 314.403C1680.93 318.207 1684.4 320.881 1686.99 322.426C1689.64 323.972 1692.53 324.744 1695.65 324.744C1700.71 324.744 1704.72 322.902 1707.66 319.217C1710.61 315.473 1712.02 310.065 1711.9 302.992H1730.99C1731.16 312.858 1729.57 320.792 1726.22 326.795C1722.92 332.797 1718.56 337.165 1713.14 339.899C1707.72 342.633 1702.01 344 1696 344C1690 344 1684.52 342.693 1679.57 340.078C1674.62 337.403 1668.91 333.243 1662.43 327.597C1658.13 323.793 1654.66 321.119 1652.01 319.574C1649.36 318.028 1646.47 317.256 1643.35 317.256C1638.58 317.256 1634.63 318.95 1631.51 322.337C1628.45 325.665 1626.98 331.222 1627.1 339.008H1608.01Z" fill="#595783"/>
</g>
</g>
<g clip-path="url(#clip4_0_1)">
<path d="M609.289 0H58.7109C26.2858 0 0 25.2233 0 56.3379V584.662C0 615.777 26.2858 641 58.7109 641H609.289C641.714 641 668 615.777 668 584.662V56.3379C668 25.2233 641.714 0 609.289 0Z" fill="#595783"/>
<path d="M573.865 117.684H185.069C175.701 117.684 168.108 124.97 168.108 133.959V424.412C168.108 433.401 175.701 440.688 185.069 440.688H573.865C583.233 440.688 590.826 433.401 590.826 424.412V133.959C590.826 124.97 583.233 117.684 573.865 117.684Z" fill="white" fill-opacity="0.7"/>
<path d="M528.202 158.998H139.405C130.038 158.998 122.444 166.285 122.444 175.273V465.727C122.444 474.715 130.038 482.002 139.405 482.002H528.202C537.569 482.002 545.163 474.715 545.163 465.727V175.273C545.163 166.285 537.569 158.998 528.202 158.998Z" fill="white" fill-opacity="0.7"/>
<path d="M482.734 200.312H93.9375C84.5702 200.312 76.9766 207.599 76.9766 216.588V507.041C76.9766 516.03 84.5702 523.316 93.9375 523.316H482.734C492.102 523.316 499.695 516.03 499.695 507.041V216.588C499.695 207.599 492.102 200.312 482.734 200.312Z" fill="white" fill-opacity="0.7"/>
</g>
<defs>
<filter id="filter0_d_0_1" x="788.908" y="105.7" width="256.843" height="258.051" filterUnits="userSpaceOnUse" color-interpolation-filters="sRGB">
<feFlood flood-opacity="0" result="BackgroundImageFix"/>
<feColorMatrix in="SourceAlpha" type="matrix" values="0 0 0 0 0 0 0 0 0 0 0 0 0 0 0 0 0 0 127 0" result="hardAlpha"/>
<feOffset dx="-10" dy="-10"/>
<feGaussianBlur stdDeviation="2.65"/>
<feComposite in2="hardAlpha" operator="out"/>
<feColorMatrix type="matrix" values="0 0 0 0 0.34902 0 0 0 0 0.341176 0 0 0 0 0.513726 0 0 0 0.25 0"/>
<feBlend mode="normal" in2="BackgroundImageFix" result="effect1_dropShadow_0_1"/>
<feBlend mode="normal" in="SourceGraphic" in2="effect1_dropShadow_0_1" result="shape"/>
</filter>
<filter id="filter1_d_0_1" x="866.202" y="181.786" width="255.635" height="260.466" filterUnits="userSpaceOnUse" color-interpolation-filters="sRGB">
<feFlood flood-opacity="0" result="BackgroundImageFix"/>
<feColorMatrix in="SourceAlpha" type="matrix" values="0 0 0 0 0 0 0 0 0 0 0 0 0 0 0 0 0 0 127 0" result="hardAlpha"/>
<feOffset dx="-10" dy="-10"/>
<feGaussianBlur stdDeviation="2.65"/>
<feComposite in2="hardAlpha" operator="out"/>
<feColorMatrix type="matrix" values="0 0 0 0 0.34902 0 0 0 0 0.341176 0 0 0 0 0.513726 0 0 0 0.25 0"/>
<feBlend mode="normal" in2="BackgroundImageFix" result="effect1_dropShadow_0_1"/>
<feBlend mode="normal" in="SourceGraphic" in2="effect1_dropShadow_0_1" result="shape"/>
</filter>
<filter id="filter2_d_0_1" x="953.157" y="269.949" width="255.635" height="258.051" filterUnits="userSpaceOnUse" color-interpolation-filters="sRGB">
<feFlood flood-opacity="0" result="BackgroundImageFix"/>
<feColorMatrix in="SourceAlpha" type="matrix" values="0 0 0 0 0 0 0 0 0 0 0 0 0 0 0 0 0 0 127 0" result="hardAlpha"/>
<feOffset dx="-10" dy="-10"/>
<feGaussianBlur stdDeviation="2.65"/>
<feComposite in2="hardAlpha" operator="out"/>
<feColorMatrix type="matrix" values="0 0 0 0 0.34902 0 0 0 0 0.341176 0 0 0 0 0.513726 0 0 0 0.25 0"/>
<feBlend mode="normal" in2="BackgroundImageFix" result="effect1_dropShadow_0_1"/>
<feBlend mode="normal" in="SourceGraphic" in2="effect1_dropShadow_0_1" result="shape"/>
</filter>
<clipPath id="clip0_0_1">
<rect width="668" height="641" fill="white" transform="translate(2004)"/>
</clipPath>
<clipPath id="clip1_0_1">
<rect width="668" height="641" fill="white" transform="translate(2004)"/>
</clipPath>
<clipPath id="clip2_0_1">
<rect width="668" height="641" fill="white" transform="translate(1336)"/>
</clipPath>
<clipPath id="clip3_0_1">
<rect width="668" height="641" fill="white" transform="translate(1336)"/>
</clipPath>
<clipPath id="clip4_0_1">
<rect width="668" height="641" fill="white"/>
</clipPath>
</defs>
</svg>
