<svg width="668" height="641" viewBox="0 0 668 641" fill="none" xmlns="http://www.w3.org/2000/svg">
<g clip-path="url(#clip0_2001_2)">
<g clip-path="url(#clip1_2001_2)">
<path d="M609.289 0H58.7109C26.2858 0 0 25.2233 0 56.3379V584.662C0 615.777 26.2858 641 58.7109 641H609.289C641.714 641 668 615.777 668 584.662V56.3379C668 25.2233 641.714 0 609.289 0Z" fill="#595783"/>
<path d="M362.034 150.746H179.966C175.014 150.746 171 155.833 171 162.107V340.385C171 346.66 175.014 351.746 179.966 351.746H362.034C366.986 351.746 371 346.66 371 340.385V162.107C371 155.833 366.986 150.746 362.034 150.746Z" fill="white"/>
<path d="M497.079 275.746H315.921C310.994 275.746 307 280.833 307 287.107V465.385C307 471.66 310.994 476.746 315.921 476.746H497.079C502.006 476.746 506 471.66 506 465.385V287.107C506 280.833 502.006 275.746 497.079 275.746Z" fill="white"/>
<path d="M423.079 199.746H241.921C236.994 199.746 233 204.883 233 211.22V391.272C233 397.609 236.994 402.746 241.921 402.746H423.079C428.006 402.746 432 397.609 432 391.272V211.22C432 204.883 428.006 199.746 423.079 199.746Z" fill="white"/>
<rect x="161.776" y="124" width="538.664" height="28.5287" transform="rotate(43.8847 161.776 124)" fill="#595783"/>
</g>
</g>
<defs>
<clipPath id="clip0_2001_2">
<rect width="668" height="641" fill="white"/>
</clipPath>
<clipPath id="clip1_2001_2">
<rect width="668" height="641" fill="white"/>
</clipPath>
</defs>
</svg>
