<svg width="2004" height="641" viewBox="0 0 2004 641" fill="none" xmlns="http://www.w3.org/2000/svg">
<g clip-path="url(#clip0_0_1)">
<path d="M609.289 0H58.7109C26.2858 0 0 25.2233 0 56.3379V584.662C0 615.777 26.2858 641 58.7109 641H609.289C641.714 641 668 615.777 668 584.662V56.3379C668 25.2233 641.714 0 609.289 0Z" fill="#595783"/>
<path d="M362.034 150.746H179.966C175.014 150.746 171 155.833 171 162.107V340.385C171 346.66 175.014 351.746 179.966 351.746H362.034C366.986 351.746 371 346.66 371 340.385V162.107C371 155.833 366.986 150.746 362.034 150.746Z" fill="white"/>
<path d="M497.079 275.746H315.921C310.994 275.746 307 280.833 307 287.107V465.385C307 471.66 310.994 476.746 315.921 476.746H497.079C502.006 476.746 506 471.66 506 465.385V287.107C506 280.833 502.006 275.746 497.079 275.746Z" fill="white"/>
<path d="M423.079 199.746H241.921C236.994 199.746 233 204.883 233 211.22V391.272C233 397.609 236.994 402.746 241.921 402.746H423.079C428.006 402.746 432 397.609 432 391.272V211.22C432 204.883 428.006 199.746 423.079 199.746Z" fill="white"/>
<rect x="161.776" y="124" width="538.664" height="28.5287" transform="rotate(43.8847 161.776 124)" fill="#595783"/>
</g>
<g clip-path="url(#clip1_0_1)">
<path d="M1277.29 0H726.711C694.286 0 668 25.2233 668 56.3379V584.662C668 615.777 694.286 641 726.711 641H1277.29C1309.71 641 1336 615.777 1336 584.662V56.3379C1336 25.2233 1309.71 0 1277.29 0Z" fill="#595783"/>
<path d="M1241.87 117.684H853.069C843.701 117.684 836.108 124.97 836.108 133.959V424.412C836.108 433.401 843.701 440.688 853.069 440.688H1241.87C1251.23 440.688 1258.83 433.401 1258.83 424.412V133.959C1258.83 124.97 1251.23 117.684 1241.87 117.684Z" fill="white" fill-opacity="0.7"/>
<path d="M1196.2 158.998H807.405C798.038 158.998 790.444 166.285 790.444 175.273V465.727C790.444 474.715 798.038 482.002 807.405 482.002H1196.2C1205.57 482.002 1213.16 474.715 1213.16 465.727V175.273C1213.16 166.285 1205.57 158.998 1196.2 158.998Z" fill="white" fill-opacity="0.7"/>
<path d="M1150.73 200.312H761.938C752.57 200.312 744.977 207.599 744.977 216.588V507.041C744.977 516.03 752.57 523.316 761.938 523.316H1150.73C1160.1 523.316 1167.7 516.03 1167.7 507.041V216.588C1167.7 207.599 1160.1 200.312 1150.73 200.312Z" fill="white" fill-opacity="0.7"/>
</g>
<g clip-path="url(#clip2_0_1)">
<rect width="668" height="641" transform="translate(1336)" fill="none"/>
<g clip-path="url(#clip3_0_1)">
<path d="M1945.29 0H1394.71C1362.29 0 1336 25.2233 1336 56.3379V584.662C1336 615.777 1362.29 641 1394.71 641H1945.29C1977.71 641 2004 615.777 2004 584.662V56.3379C2004 25.2233 1977.71 0 1945.29 0Z" fill="#595783"/>
<path d="M1842.22 176.525H1497.78C1488.41 176.525 1480.82 183.812 1480.82 192.801V448.199C1480.82 457.188 1488.41 464.475 1497.78 464.475H1842.22C1851.59 464.475 1859.18 457.188 1859.18 448.199V192.801C1859.18 183.812 1851.59 176.525 1842.22 176.525Z" fill="white"/>
<path d="M1679.13 224.726C1679.13 219.54 1674.75 215.336 1669.35 215.336C1663.94 215.336 1659.56 219.54 1659.56 224.726V271.048C1659.56 276.234 1663.94 280.438 1669.35 280.438C1674.75 280.438 1679.13 276.234 1679.13 271.048V224.726Z" fill="#595783"/>
<path d="M1679.13 368.7C1679.13 363.514 1674.75 359.311 1669.35 359.311C1663.94 359.311 1659.56 363.514 1659.56 368.7V415.022C1659.56 420.208 1663.94 424.412 1669.35 424.412C1674.75 424.412 1679.13 420.208 1679.13 415.022V368.7Z" fill="#595783"/>
<path d="M1570.19 310.484C1564.79 310.484 1560.41 314.688 1560.41 319.874C1560.41 325.06 1564.79 329.264 1570.19 329.264H1618.46C1623.87 329.264 1628.25 325.06 1628.25 319.874C1628.25 314.688 1623.87 310.484 1618.46 310.484H1570.19Z" fill="#595783"/>
<path d="M1720.23 310.484C1714.83 310.484 1710.45 314.688 1710.45 319.874C1710.45 325.06 1714.83 329.264 1720.23 329.264H1768.5C1773.91 329.264 1778.29 325.06 1778.29 319.874C1778.29 314.688 1773.91 310.484 1768.5 310.484H1720.23Z" fill="#595783"/>
<path d="M1592.05 245.701L1592.05 245.701C1588.53 249.079 1588.53 254.557 1592.05 257.935L1627.47 291.92C1630.99 295.298 1636.7 295.298 1640.22 291.92L1640.22 291.919C1643.74 288.541 1643.74 283.064 1640.22 279.685L1604.8 245.701C1601.28 242.322 1595.57 242.322 1592.05 245.701Z" fill="#595783"/>
<path d="M1698.3 347.655L1698.3 347.655C1694.78 351.033 1694.78 356.511 1698.3 359.889L1733.71 393.874C1737.24 397.252 1742.94 397.252 1746.46 393.874L1746.46 393.874C1749.99 390.495 1749.99 385.018 1746.46 381.639L1711.05 347.655C1707.53 344.276 1701.82 344.276 1698.3 347.655Z" fill="#595783"/>
<path d="M1592.05 393.873L1592.05 393.873C1595.57 397.251 1601.28 397.251 1604.8 393.873L1640.22 359.889C1643.74 356.51 1643.74 351.033 1640.22 347.654C1636.69 344.276 1630.99 344.276 1627.47 347.654L1592.05 381.639C1588.53 385.017 1588.53 390.495 1592.05 393.873Z" fill="#595783"/>
<path d="M1698.3 291.92L1698.3 291.92C1701.82 295.299 1707.53 295.299 1711.05 291.92L1746.46 257.936C1749.98 254.558 1749.98 249.08 1746.46 245.702L1746.46 245.701C1742.94 242.323 1737.24 242.323 1733.71 245.702L1698.3 279.686C1694.78 283.064 1694.78 288.542 1698.3 291.92Z" fill="#595783"/>
</g>
</g>
<defs>
<clipPath id="clip0_0_1">
<rect width="668" height="641" fill="white"/>
</clipPath>
<clipPath id="clip1_0_1">
<rect width="668" height="641" fill="white" transform="translate(668)"/>
</clipPath>
<clipPath id="clip2_0_1">
<rect width="668" height="641" fill="red" transform="translate(1336)"/>
</clipPath>
<clipPath id="clip3_0_1">
<rect width="668" height="641" fill="white" transform="translate(1336)"/>
</clipPath>
</defs>
</svg>
